<svg viewBox="0 0 48 48" xmlns="http://www.w3.org/2000/svg" xmlns:xlink="http://www.w3.org/1999/xlink" width="48" height="48">
<defs>



 <path fill="#5d6b82" id="i-2157" d="M48,7c0-2.335-1.068-3.396-2.045-3.796C45.739,0.87,44.591,0,43.5,0h-12c-1.091,0-2.239,0.87-2.455,3.204 C28.068,3.604,27,4.665,27,7c0-2.335-1.068-3.396-2.045-3.796C24.739,0.87,23.59,0,22.5,0h-18C3.41,0,2.261,0.87,2.045,3.205 C1.068,3.604,0,4.665,0,7v1h1.915C1.668,11.035,1,19.494,1,22c0,9.088,5.824,23.752,6.071,24.371l0.142,0.354l0.341,0.17 C7.646,46.94,9.813,48,13,48c3.114,0,6.186-1.008,6.315-1.051l0.441-0.146l0.173-0.432C20.176,45.752,26,31.088,26,22 c0-2.506-0.668-10.965-0.915-14H27h0.894C27.631,10.623,27,17.111,27,18.977c0,6.982,4.88,17.968,5.087,18.432l0.138,0.309 l0.297,0.161C32.605,37.924,34.607,39,37.107,39c2.43,0,5.136-1.022,5.249-1.066l0.387-0.146l0.17-0.379 C43.12,36.944,48,25.959,48,18.977c0-1.865-0.631-8.354-0.894-10.977H48V7z M2.111,6C2.348,5.1,2.889,5.008,3,5h20.971 c0.133,0.008,0.679,0.1,0.917,1H2.111z M4.5,2h18.002c0.06,0.02,0.299,0.271,0.423,1H4.075C4.198,2.271,4.438,2.02,4.5,2z M24,22 c0,7.85-4.776,20.645-5.755,23.184C17.334,45.445,15.147,46,13,46c-2.025,0-3.573-0.502-4.221-0.755C7.856,42.858,3,29.916,3,22 c0-2.444,0.689-11.141,0.921-14H6v8.278C5.405,16.625,5,17.263,5,18c0,1.104,0.897,2,2,2s2-0.896,2-2c0-0.737-0.405-1.375-1-1.722V8 h11v8.278c-0.595,0.347-1,0.984-1,1.722c0,1.104,0.897,2,2,2s2-0.896,2-2c0-0.737-0.405-1.375-1-1.722V8h2.079 C23.311,10.859,24,19.556,24,22z M29.111,6C29.349,5.1,29.889,5.008,30,5h14.972c0.133,0.008,0.679,0.1,0.917,1H29.111z M31.5,2 h12.003c0.06,0.02,0.299,0.271,0.422,1h-12.85C31.198,2.271,31.438,2.02,31.5,2z M46,18.977c0,5.853-3.877,15.209-4.743,17.225 C40.483,36.461,38.685,37,37.107,37c-1.485,0-2.783-0.493-3.34-0.74C32.955,34.373,29,24.893,29,18.977 c0-1.802,0.658-8.529,0.903-10.977H31v6.212c-0.595,0.347-1,0.985-1,1.722c0,1.104,0.897,2,2,2s2-0.896,2-2 c0-0.736-0.405-1.375-1-1.722V8h8v6.212c-0.595,0.347-1,0.985-1,1.722c0,1.104,0.897,2,2,2s2-0.896,2-2c0-0.736-0.405-1.375-1-1.722 V8h2.097C45.342,10.447,46,17.175,46,18.977z"/> 
</defs>

<use x="0" y="0" xlink:href="#i-2157"/>

</svg>