<svg xmlns="http://www.w3.org/2000/svg" viewBox="0 0 24 23"><defs><style>.cls-1{fill:none;stroke:#999;stroke-miterlimit:10;stroke-width:2px;}</style></defs><title>hats-open</title><g id="Layer_2" data-name="Layer 2"><g id="Layer_1-2" data-name="Layer 1"><line class="cls-1" x1="12" y1="12" x2="12" y2="23"/><line class="cls-1" x1="12" y1="7" x2="12"/><path class="cls-1" d="M4.74,8.5C2.45,8.87,1,9.4,1,10c0,1.1,4.92,2,11,2s11-.9,11-2c0-.6-1.45-1.13-3.74-1.5"/><path class="cls-1" d="M19.26,8.5C21.55,8.13,23,7.6,23,7c0-1.1-4.92-2-11-2S1,5.9,1,7c0,.6,1.45,1.13,3.74,1.5"/><path class="cls-1" d="M4.74,8.5A47.72,47.72,0,0,0,12,9a47.72,47.72,0,0,0,7.26-.5"/></g></g></svg>