<svg viewBox="0 0 48 48" xmlns="http://www.w3.org/2000/svg" xmlns:xlink="http://www.w3.org/1999/xlink" width="48" height="48">
<defs>



 <path fill="#5d6b82" id="i-2160" d="M30,27c0-1.654-1.346-3-3-3s-3,1.346-3,3c0,1.579,1.23,2.863,2.781,2.979c-0.092,0.439-0.283,0.938-0.629,1.492 c-1.5,2.398-1.784,4.814-0.78,6.627c0.668,1.205,1.849,1.953,3.082,1.953C30.219,40.051,32,38.488,32,35 c0-2.889-1.19-5.145-2.334-6.654C29.873,27.939,30,27.486,30,27z M26,27c0-0.031,0.014-0.057,0.018-0.087 c-0.016,0.23,0.049,0.465,0.188,0.663C26.085,27.411,26,27.219,26,27z M27,26c0.044,0,0.082,0.02,0.124,0.025 c-0.059-0.008-0.118-0.018-0.178-0.015C26.965,26.01,26.981,26,27,26z M30,35c0,1.824-0.621,3.051-1.546,3.051 c-0.507,0-1.018-0.354-1.332-0.922c-0.304-0.549-0.841-2.092,0.726-4.6c0.444-0.709,0.716-1.389,0.86-2.022 C29.41,31.682,30,33.203,30,35z M36,27c0,2.24-0.82,4.29-2.18,5.87c-0.16-0.899-0.4-1.72-0.7-2.479C33.68,29.38,34,28.23,34,27 c0-3.859-3.14-7-7-7c-3.86,0-7,3.141-7,7c0,2.49,1.3,4.67,3.26,5.91c-0.23,0.699-0.38,1.39-0.44,2.061C19.96,33.46,18,30.45,18,27 c0-4.96,4.04-9,9-9S36,22.04,36,27z M37.057,10.91C33.693,5.568,27.765,2,21,2C10.523,2,2,10.523,2,21 c0,6.766,3.568,12.692,8.909,16.057C14.272,42.418,20.219,46,27,46c10.477,0,19-8.523,19-19C46,20.219,42.417,14.272,37.057,10.91z M4,21c0-9.374,7.626-17,17-17c4.676,0,8.904,1.91,11.978,4.979C31.096,8.352,29.09,8,27,8C16.523,8,8,16.523,8,27 c0,2.09,0.352,4.096,0.978,5.979C5.91,29.904,4,25.677,4,21z M27,44c-9.374,0-17-7.626-17-17s7.626-17,17-17s17,7.626,17,17 S36.374,44,27,44z"/> 
</defs>

<use x="0" y="0" xlink:href="#i-2160"/>

</svg>