<svg viewBox="0 0 48 48" xmlns="http://www.w3.org/2000/svg" xmlns:xlink="http://www.w3.org/1999/xlink" width="48" height="48">
<defs>



 <path fill="#5d6b82" id="i-2156" d="M38.119,3l-0.125-0.247C37.936,1.431,37.389,0,36,0H12c-1.389,0-1.935,1.431-1.995,2.753L9.882,3H8v7h2V9h0.018 c0.187,5.59,3.423,8.479,5.812,10.6c1.117,0.992,2.081,1.848,2.18,2.542c0.939,6.575-0.85,18.257-6.717,23.151 c-0.395,0.395-0.718,1.053-0.442,1.717C11.261,48,12.569,48,13,48h22c0.43,0,1.74,0,2.15-0.99c0.275-0.664-0.049-1.322-0.51-1.777 c-5.801-4.834-7.59-16.516-6.65-23.092c0.1-0.693,1.064-1.549,2.18-2.541c2.389-2.12,5.627-5.01,5.812-10.6H38v1h2V3H38.119z M12,3.236V3c0-0.315,0.075-0.781,0.172-1h23.656C35.92,2.208,35.998,2.648,36,3v0.236L36.383,4H30V3h-2v1h-8V3h-2v1h-6.382 L12,3.236z M28,6v1h-8V6H28z M10,7V6h8v1H10z M30.842,18.104c-1.41,1.254-2.629,2.335-2.832,3.755 c-0.961,6.737,0.824,18.544,6.5,24.142H13.482c5.694-5.666,7.468-17.424,6.508-24.142c-0.203-1.42-1.421-2.501-2.832-3.754 c-2.219-1.97-4.955-4.413-5.14-9.104H18v1h2V9h8v1h2V9h5.982C35.797,13.691,33.062,16.135,30.842,18.104z M38,7h-8V6h8V7z"/> 
</defs>

<use x="0" y="0" xlink:href="#i-2156"/>

</svg>