<svg viewBox="0 0 48 48" xmlns="http://www.w3.org/2000/svg" xmlns:xlink="http://www.w3.org/1999/xlink" width="48" height="48">
<defs>



 <path fill="#5d6b82" id="i-2177" d="M45.706,6.297C44.182,4.773,42.345,4,40.249,4c-2.918,0-6.267,1.606-8.957,4.297c-4.615,4.613-4.988,9.782-3.055,13.041 c-1.39,1.181-2.815,2.402-4.24,3.637c-1.425-1.23-2.848-2.457-4.238-3.635c1.94-3.26,1.561-8.43-3.051-13.04 c-2.69-2.69-6.04-4.3-8.96-4.3c-2.1,0-3.931,0.77-5.461,2.3c-1.761,1.761-2.55,4.15-2.21,6.729c0.34,2.611,1.8,5.261,4.21,7.681 c2.781,2.771,5.921,4.3,8.852,4.3c1.539,0,2.969-0.42,4.219-1.22c1.118,1.31,2.268,2.649,3.43,3.993 C13.951,33.821,7.998,39.508,7.998,41c0,1.542,1.458,3,3,3c1.475,0,7.048-5.813,13.007-12.547C29.953,38.188,35.525,44,37,44 c1.54,0,3-1.46,3-3c0-1.498-5.95-7.179-12.787-13.214c1.162-1.343,2.312-2.686,3.428-3.996c1.244,0.797,2.677,1.218,4.224,1.218 c2.93,0,6.069-1.527,8.842-4.299c2.418-2.416,3.876-5.073,4.218-7.683C48.261,10.454,47.474,8.064,45.706,6.297z M3.737,16.92 c-0.93-1.38-1.5-2.779-1.68-4.15c-0.261-1.97,0.31-3.72,1.649-5.06C4.837,6.58,6.198,6,7.748,6c1.63,0,3.46,0.65,5.189,1.8 l0.771,3.851l-4.08-1.021l1,4l-3.989-1l1.01,4.14L3.737,16.92z M17.288,21.29c-1.12,1.13-2.56,1.72-4.149,1.72 c-2.351,0-4.94-1.279-7.291-3.59l4.5,0.98L9.368,16.38l4.01,1l-1-4l3.91,0.979l-0.91-4.56C20.22,14.721,19.129,19.45,17.288,21.29z M22.464,26.311c-0.059,0.051-0.117,0.102-0.175,0.152c-0.36-0.414-0.723-0.826-1.08-1.242 C21.63,25.581,22.046,25.946,22.464,26.311z M10.907,41.992c-0.398-0.061-0.841-0.503-0.901-0.9 c0.72-1.53,8.603-8.814,16.777-15.875C19.722,33.391,12.437,41.272,10.907,41.992z M37.99,41.09c-0.061,0.4-0.5,0.84-0.9,0.9 c-1.229-0.581-6.176-5.789-11.75-12.053c0.183-0.209,0.365-0.418,0.548-0.627C32.173,34.886,37.409,39.861,37.99,41.09z M34.864,23.008c-1.6,0-3.038-0.592-4.158-1.713c-1.842-1.842-2.928-6.576,1.912-11.489l-0.91,4.551l3.917-0.979l-1,4l4.008-1.002 L37.647,20.4l4.504-0.976C39.795,21.732,37.214,23.008,34.864,23.008z M45.94,12.767c-0.179,1.37-0.751,2.775-1.676,4.155 l-3.914,0.846l1.013-4.137l-3.99,0.998l1-4l-4.083,1.021l0.771-3.854C36.793,6.654,38.617,6,40.249,6 c1.546,0,2.907,0.576,4.043,1.711C45.629,9.048,46.199,10.796,45.94,12.767z"/> 
</defs>

<use x="0" y="0" xlink:href="#i-2177"/>

</svg>