<svg viewBox="0 0 48 48" xmlns="http://www.w3.org/2000/svg" xmlns:xlink="http://www.w3.org/1999/xlink" width="48" height="48">
<defs>



 <path fill="#5d6b82" id="i-2161" d="M39,16h-8c-3.859,0-7-3.141-7-7c0-4.963-4.038-9-9-9H9C4.038,0,0,4.037,0,9v38h2v1h44.002v-1H48V25 C48,20.037,43.963,16,39,16z M8,46H4V30h3v9h1V46z M14,46h-4v-7h1v-9h2v9h1V46z M20,46h-4v-7h1v-9h3V46z M26,46h-3.999V30H25v9h1V46 z M32,46h-4v-7h1v-9h2v9h1V46z M38,46h-4v-7h1v-9h2v9h1V46z M44.002,46H40v-7h1v-9h3.002V46z M46,28H2V9c0-3.859,3.14-7,7-7h6 c3.86,0,7,3.141,7,7c0,4.963,4.037,9,9,9h8c3.859,0,7,3.141,7,7V28z"/> 
</defs>

<use x="0" y="0" xlink:href="#i-2161"/>

</svg>