<svg viewBox="0 0 48 48" xmlns="http://www.w3.org/2000/svg" xmlns:xlink="http://www.w3.org/1999/xlink" width="48" height="48">
<defs>



 <path fill="#5d6b82" id="i-2158" d="M47,26c0-2.757-2.243-5-5-5c-0.233,0-0.457,0.037-0.683,0.068c-1.201-2.087-2.76-3.942-4.604-5.471 C36.886,15.094,37,14.562,37,14c0-2.757-2.243-5-5-5c-1.789,0-3.35,0.953-4.233,2.369C26.539,11.133,25.276,11,23.981,11 c-1.283,0-2.534,0.133-3.75,0.365C19.347,9.951,17.787,9,16,9c-2.757,0-5,2.243-5,5c0,0.551,0.111,1.07,0.276,1.566 c-1.857,1.531-3.42,3.4-4.628,5.499C6.434,21.037,6.222,21,6,21c-2.757,0-5,2.243-5,5c0,2.047,1.239,3.805,3.003,4.578 C4,30.72,3.981,30.857,3.981,31c0,0.066,0.007,0.133,0.019,0.195c0.023,3.412,0.641,5.74,1.839,6.92C6.428,38.695,7.163,39,7.967,39 c0.016,0,0.032,0,0.048,0c1.188-0.018,2.6-1.232,4.785-3.229c0.618-0.566,1.416-1.295,1.898-1.65 c0.124,0.116,0.263,0.238,0.413,0.364V35c0,0.316,0.149,0.613,0.403,0.803C17.501,37.281,20.271,38,23.981,38 s6.479-0.719,8.467-2.197c0.254-0.189,0.403-0.486,0.403-0.803v-0.515c0.151-0.127,0.292-0.251,0.417-0.368 c0.5,0.359,1.341,1.118,1.991,1.705c2.179,1.967,3.583,3.161,4.727,3.178c0.753-0.006,1.44-0.285,2.017-0.854 C43.254,36.914,44,34.242,44,31c0-0.066-0.007-0.131-0.02-0.193c-0.001-0.072-0.012-0.141-0.013-0.213 C45.748,29.828,47,28.059,47,26z M4.176,28.365C3.466,27.815,3,26.965,3,26c0-1.533,1.16-2.787,2.646-2.965 C4.917,24.706,4.423,26.496,4.176,28.365z M40.325,23.512c0.782,1.701,1.316,3.539,1.534,5.475C40.271,28.91,39,27.606,39,26 C39,24.966,39.526,24.052,40.325,23.512z M32,11c1.654,0,3,1.346,3,3c0,0.105-0.021,0.204-0.031,0.307 c-1.561-1.031-3.271-1.855-5.096-2.42C30.417,11.34,31.169,11,32,11z M29.027,13.734c1.828,0.535,3.54,1.346,5.078,2.398 C33.563,16.668,32.82,17,32,17c-1.654,0-3-1.346-3-3C29,13.908,29.019,13.822,29.027,13.734z M19,14c0,1.654-1.346,3-3,3 c-0.829,0-1.58-0.338-2.123-0.883c1.544-1.052,3.26-1.861,5.095-2.395C18.98,13.815,19,13.904,19,14z M16,11 c0.827,0,1.578,0.336,2.121,0.88c-1.823,0.56-3.531,1.38-5.092,2.405C13.02,14.189,13,14.098,13,14C13,12.346,14.346,11,16,11z M7.639,23.493C8.457,24.029,9,24.951,9,26c0,1.623-1.297,2.94-2.907,2.99C6.31,27.046,6.851,25.201,7.639,23.493z M40.599,36.723 c-0.257,0.252-0.46,0.292-0.562,0.279c-0.586-0.092-2.44-1.766-3.437-2.664c-1.604-1.447-2.672-2.412-3.516-2.412 c-0.238,0-0.455,0.1-0.664,0.264c-0.039-0.028-0.075-0.061-0.119-0.083c-0.339-0.169-0.742-0.134-1.046,0.091 C29.647,33.394,27.2,34,23.981,34c-3.219,0-5.666-0.606-7.273-1.803c-0.304-0.227-0.709-0.26-1.046-0.091 c-0.043,0.022-0.079,0.054-0.118,0.081c-0.948-0.746-2.091,0.277-4.094,2.107C10.446,35.213,8.575,36.924,7.985,37 c-0.284,0.01-0.519-0.092-0.742-0.311C6.869,36.322,6,35.03,6,31c2.757,0,5-2.243,5-5c0-1.812-0.978-3.387-2.424-4.264 c1.002-1.66,2.259-3.147,3.725-4.402C13.217,18.35,14.528,19,16,19c2.757,0,5-2.243,5-5c0-0.247-0.038-0.484-0.073-0.721 C21.922,13.107,22.938,13,23.981,13c1.056,0,2.084,0.109,3.091,0.285C27.038,13.521,27,13.756,27,14c0,2.757,2.243,5,5,5 c1.462,0,2.767-0.643,3.682-1.646c1.461,1.255,2.711,2.741,3.71,4.399C37.963,22.636,37,24.201,37,26 c0,2.75,2.233,4.988,4.981,4.998V31c0,0.062,0.006,0.125,0.018,0.184C41.973,33.705,41.417,35.916,40.599,36.723z M43.795,28.389 c-0.248-1.878-0.744-3.678-1.477-5.356C43.821,23.193,45,24.455,45,26C45,26.979,44.522,27.842,43.795,28.389z"/> 
</defs>

<use x="0" y="0" xlink:href="#i-2158"/>

</svg>